<?xml version="1.0"?><svg version="1.2" baseProfile="tiny-ps" viewBox="0 0 300 300" xmlns="http://www.w3.org/2000/svg" xmlns:xlink="http://www.w3.org/1999/xlink"><title>DotPixel Logo</title><g><g fill="#fff" transform="matrix(.1 0 0 -.1 0 300)"><path d="M0 1500V0h3000v3000H0V1500z"/></g><g fill="#d9d9d9" transform="matrix(.1 0 0 -.1 0 300)"><path d="M1315 1938c-11-6-25-19-32-27l-12-16-1-33v-33l25-24 24-25h63l29 29 29 29v54l-29 29-29 29h-24c-13 0-32-6-43-12zm1277-345 3-318 68-3 67-3v641h-140l2-317zM877 1736l-47-23v27H690v-690h140v125c0 69 1 125 3 125 1 0 20-9 42-20l39-20h112l53 26 53 27 29 40 30 41 15 53 16 53-11 52c-19 88-70 150-151 187l-45 21h-92l-46-24zm118-120 35-15 20-33 20-33v-28c0-15-7-41-15-57l-15-30-30-15c-37-19-83-19-120 0l-30 15-16 32-16 31 5 39 5 40 19 20c18 21 68 47 91 48 7 0 28-6 47-14zm1199 133c-18-5-53-24-80-41l-48-33-28-54-28-53v-119l14-33c7-18 29-50 47-71l34-38 50-23 50-24h121l45 15 45 16 37 30c20 17 37 34 37 39s-24 22-53 39l-54 31-38-20-39-20h-88l-30 33-31 32 181 3 180 2 6 25 6 24-10 48-11 48-24 37c-31 46-79 83-134 103l-44 15-41-1c-22 0-55-5-72-10zm145-147c14-10 27-24 29-30l4-12h-202v8c0 13 32 39 60 51l25 10 30-4c17-3 41-13 54-23zm-1057-94 3-233h140l3 233 2 232h-150l2-232zm208 225c0-5 38-57 85-116l85-109-85-110c-47-61-85-114-85-119v-9h78l77 1 35 45c19 25 42 54 50 65l15 19 50-65 49-65h156v9c0 4-26 42-58 82-32 41-70 91-86 111l-28 37 86 110c47 60 86 112 86 115s-36 6-79 6h-80l-46-60c-25-33-48-60-50-60s-25 27-51 60l-47 60h-157v-7zM270 1405v-125h250v250H270v-125z"/></g><g fill="#17dad0" transform="matrix(.1 0 0 -.1 0 300)"><path d="M1324 1940c-28-11-54-48-54-78v-24l30-30 31-30 31 6c39 8 64 30 70 61l5 23-13 31-13 31-26 10c-30 12-33 12-61 0zm1266-345v-315h140v630h-140v-315zM920 1751c-14-5-40-16-58-25l-32-17v31H690v-690h140v259l43-24 42-25h44c24 0 62 5 85 12l41 12 50 51 51 50 12 41c7 23 12 64 12 91v49l-26 52-26 52-36 30-37 31-49 14c-54 16-78 17-116 6zm86-137 35-17 14-28 15-28v-79l-26-31-25-30-35-10-34-9-34 9-35 10-25 30-26 31v79l14 28 15 28 33 16c42 21 71 21 114 1zm1180 130-49-15-51-52-52-52-12-41c-7-23-12-62-12-87v-45l28-53 28-54 42-32 43-32 37-11c20-5 58-10 84-10h47l53 20 53 20 35 29c19 16 33 31 30 33-3 3-29 19-59 37l-53 32-17-14c-9-8-33-20-53-25l-38-10-35 9-34 10-21 27-22 27 181 3 181 2v101l-15 36c-9 20-26 51-39 68l-24 31-49 26-50 27-54 6-54 5-49-16zm160-145c13-12 24-26 24-31v-8h-107l-108 1 39 35 38 36 45-5 44-5 25-23zm-1059 134-7-6v-447h140v460h-63c-35 0-67-3-70-7zm209-5c4-7 43-59 86-115s78-103 78-106-38-54-85-113l-85-109 78-3 77-3 30 37c17 21 39 48 50 62l21 24 47-61 48-61h160l-78 100c-43 56-82 107-87 115l-10 13 75 97c40 53 80 105 88 116l13 19h-158l-49-65c-27-36-50-65-50-65-1 0-23 29-50 65l-49 65h-157l7-12zM270 1405v-125h250v250H270v-125z"/></g><g fill="#929292" transform="matrix(.1 0 0 -.1 0 300)"><path d="M1324 1940c-28-11-54-48-54-78v-24l30-30 31-30 31 6c39 8 64 30 70 61l5 23-13 31-13 31-26 10c-30 12-33 12-61 0zm1266-345v-315h140v630h-140v-315zM920 1751c-14-5-40-16-58-25l-32-17v31H690v-690h140v259l43-24 42-25h44c24 0 62 5 85 12l41 12 50 51 51 50 12 41c7 23 12 64 12 91v49l-26 52-26 52-36 30-37 31-49 14c-54 16-78 17-116 6zm86-137 35-17 14-28 15-28v-79l-26-31-25-30-35-10-34-9-34 9-35 10-25 30-26 31v79l14 28 15 28 33 16c42 21 71 21 114 1zm1180 130-49-15-51-52-52-52-12-41c-7-23-12-62-12-87v-45l28-53 28-54 42-32 43-32 37-11c20-5 58-10 84-10h47l53 20 53 20 35 29c19 16 33 31 30 33-3 3-29 19-59 37l-53 32-17-14c-9-8-33-20-53-25l-38-10-35 9-34 10-21 27-22 27 181 3 181 2v101l-15 36c-9 20-26 51-39 68l-24 31-49 26-50 27-54 6-54 5-49-16zm160-145c13-12 24-26 24-31v-8h-107l-108 1 39 35 38 36 45-5 44-5 25-23zm-1059 134-7-6v-447h140v460h-63c-35 0-67-3-70-7zm209-5c4-7 43-59 86-115s78-103 78-106-38-54-85-113l-85-109 78-3 77-3 30 37c17 21 39 48 50 62l21 24 47-61 48-61h160l-78 100c-43 56-82 107-87 115l-10 13 75 97c40 53 80 105 88 116l13 19h-158l-49-65c-27-36-50-65-50-65-1 0-23 29-50 65l-49 65h-157l7-12z"/></g><g fill="#535353" transform="matrix(.1 0 0 -.1 0 300)"><path d="M1312 1933c-7-3-19-18-28-34l-15-30 7-22c3-12 13-30 22-39l15-18h77l20 20 20 20v67l-23 21-23 22-30-1c-16 0-35-3-42-6zm1288-338v-315h130v630h-130v-315zM875 1730c-47-24-45-24-45-5v16l-67-3-68-3v-680h130l3 127 3 127 47-25 47-26 56 5 56 5 30 16c50 25 93 66 116 110l21 41 1 70v70l-18 36c-25 50-74 98-122 120l-40 19H914l-39-20zm142-120c45-27 58-56 54-128l-1-22-32-35-33-36-36-5-36-6-35 16-34 16-18 31-18 31v38c1 50 15 76 55 100l32 20h70l32-20zm1132 113-54-28-32-43-32-43-12-42-11-42 5-40c9-83 61-156 139-196l41-21 52-5 53-6 55 18 55 17 36 30c20 16 36 33 36 38 0 4-21 20-46 35l-46 27-51-22-50-22-35 6-35 5-29 27c-15 15-28 34-28 41v13h360v36c0 20-5 54-12 76l-12 39-40 46-40 46-41 18-40 19h-131l-55-27zm181-108c16-8 34-24 40-35l11-20h-222l11 20c6 11 23 26 38 34l27 15 33 1h33l29-15zm-1040-105v-230h130v460h-130v-230zm226 193c15-21 54-71 86-112 32-40 58-78 58-83 0-9-42-65-138-185l-34-43h158l45 60c24 32 47 59 52 60 4 0 28-27 54-60l46-60h74c40 0 73 3 73 6 0 4-15 25-33 48s-56 71-85 107l-51 66 84 109c47 60 85 112 85 117v7h-145l-49-65c-27-36-49-65-50-65-2 0-26 29-54 65l-53 65h-151l28-37z"/></g><g fill="#020202" transform="matrix(.1 0 0 -.1 0 300)"><path d="m1302 1917-22-23v-64l20-20 20-20h69l20 26 21 27v48l-25 24-24 25h-58l-21-23zm1298-322v-315h130v630h-130v-315zM877 1726l-47-23v27H700v-670h130v125c0 69 2 125 4 125 3 0 21-10 42-22l36-21h114l54 29 54 29 28 45c16 25 33 62 39 84l11 40-7 45c-13 88-62 153-145 190l-45 21h-92l-46-24zm158-129 34-34 7-28 7-29-14-40-14-40-34-23-34-23h-72l-33 20-33 20-15 37-16 36 7 35 7 36 33 33 33 33h104l33-33zm1150 141c-16-6-48-23-70-39l-41-27-26-49c-14-26-29-65-32-86l-7-38 16-54 16-55 30-35c41-46 85-72 147-85l51-12 56 12 55 11 47 32c26 18 48 37 50 42l3 10-48 27-49 27-39-19-38-20h-67l-29 15-30 15-15 30-16 30h374l-6 54-5 53-20 39c-26 51-66 88-122 113l-45 21-55-1c-30 0-68-5-85-11zm152-124c12-8 27-23 33-34l11-20h-221v8c0 15 47 53 76 61 33 10 70 5 101-15zm-1047-109v-225h130v450h-130v-225zm217 213c6-7 45-57 87-112l76-98-32-42c-18-22-56-71-85-108s-53-69-53-72c0-4 33-6 73-6h72l23 33c12 17 35 47 50 65l28 34 50-66 49-66h147l-13 19c-8 11-47 63-87 115l-73 94 84 109 84 108-71 3-71 3-30-38c-16-20-39-48-51-62l-21-24-49 61-49 62h-147l9-12z"/></g></g></svg>